<?xml version="1.0" encoding="UTF-8" standalone="no"?>
<!-- Generator: Adobe Illustrator 24.3.0, SVG Export Plug-In . SVG Version: 6.00 Build 0)  -->

<svg
   version="1.1"
   id="Layer_1"
   x="0px"
   y="0px"
   viewBox="0 0 68 68"
   style="enable-background:new 0 0 68 68;"
   xml:space="preserve"
   sodipodi:docname="eye2_change.svg"
   inkscape:version="1.2.1 (9c6d41e410, 2022-07-14)"
   xmlns:inkscape="http://www.inkscape.org/namespaces/inkscape"
   xmlns:sodipodi="http://sodipodi.sourceforge.net/DTD/sodipodi-0.dtd"
   xmlns="http://www.w3.org/2000/svg"
   xmlns:svg="http://www.w3.org/2000/svg"><defs
   id="defs44" /><sodipodi:namedview
   id="namedview42"
   pagecolor="#ffffff"
   bordercolor="#000000"
   borderopacity="0.25"
   inkscape:showpageshadow="2"
   inkscape:pageopacity="0.0"
   inkscape:pagecheckerboard="0"
   inkscape:deskcolor="#d1d1d1"
   showgrid="false"
   inkscape:zoom="11.970588"
   inkscape:cx="34.000001"
   inkscape:cy="19.255529"
   inkscape:window-width="1920"
   inkscape:window-height="1001"
   inkscape:window-x="-9"
   inkscape:window-y="-9"
   inkscape:window-maximized="1"
   inkscape:current-layer="Layer_1" />
<style
   type="text/css"
   id="style24">
	
		.st0{display:none;fill:none;stroke:#00DCF0;stroke-width:0.2835;stroke-linecap:round;stroke-linejoin:round;stroke-miterlimit:10;}
	.st1{fill:none;stroke:#00DCF0;stroke-width:0.2835;stroke-linecap:round;stroke-linejoin:round;stroke-miterlimit:10;}
	.st2{fill:none;stroke:#000000;stroke-width:0.2835;stroke-linecap:round;stroke-linejoin:round;stroke-miterlimit:10;}
	
		.st3{display:none;fill:none;stroke:#F00000;stroke-width:0.2835;stroke-linecap:round;stroke-linejoin:round;stroke-miterlimit:10;}
</style>
<rect
   x="-8.5"
   y="-8.5"
   class="st0"
   width="85"
   height="85"
   id="rect26" />
<circle
   class="st0"
   cx="34"
   cy="34"
   r="34"
   id="circle28" />
<path
   id="scleraBack"
   class="st1"
   d="m 33.190416,1.356458 c -17.54873,0 -31.6668821,13.988068 -31.6668821,31.375105 0,17.387039 14.1181521,31.505837 31.6668821,31.505837 17.54873,0 31.798827,-14.118798 31.798827,-31.505837 0,-17.387037 -14.250097,-31.375105 -31.798827,-31.375105" />
<path
   id="scleraFront"
   class="st1"
   d="M34,17.7c9,0,16.3,7.3,16.3,16.3S43,50.3,34,50.3S17.7,43,17.7,34S25,17.7,34,17.7" />
<path
   id="iris"
   class="st2"
   d="m 33.498771,1.1953314 c 17.721926,0 31.955284,14.0853756 31.955284,31.5933656 0,17.507991 -14.233358,31.593368 -31.955284,31.593368 -17.721925,0 -31.9552824,-14.085377 -31.9552824,-31.593368 0,-17.50799 14.2333574,-31.5933656 31.9552824,-31.5933656" />
<path
   id="pupilMax"
   class="st2"
   d="M34,26.6c3.8,0,6.8,3.3,6.8,7.3s-3,7.4-6.8,7.4s-6.8-3.3-6.8-7.4S30.2,26.6,34,26.6" />
<path
   id="pupilMin"
   class="st2"
   d="M34,31.2c1.6,0,2.8,1.3,2.8,2.8c0,1.6-1.3,2.8-2.8,2.8c-1.6,0-2.8-1.3-2.8-2.8S32.5,31.2,34,31.2  " />
<path
   id="lowerLidEdge"
   class="st3"
   d="M72.7,31.6c0.1,0.8,0.1,1.6,0.1,2.4c0,21.4-17.3,38.7-38.7,38.7c-17.7,0-32.7-11.9-37.3-28.1  " />
<path
   id="lowerLidClosed"
   class="st3"
   d="M68.1,30.3c0.3,4.4-1,11-9.6,15.1c-10.4,5-25.4,3.6-37.2,0.3C9.5,42.5,8.3,40.3,2,42.4  c-3.9,1.3-3.4,1.6-3.6,2.2" />
<path
   id="lowerLidOpen"
   class="st3"
   d="M70.7,31.6c1.1,14.1-4.6,25.7-12.7,32.5c-12,10-25.3,7.3-34.5,3.7  C2.4,59.7,3.3,50.8-1.3,49.7c-2.1-0.5-3.3-1.2-3.4-3.5" />
<path
   id="upperLidEdge"
   class="st3"
   d="M-3.6,43.3c-0.7-3-1.1-6.1-1.1-9.3C-4.7,12.6,12.6-4.7,34-4.7c20.1,0,36.6,15.2,38.5,34.8" />
<path
   id="upperLidClosed"
   class="st3"
   d="M68.2,31.7C68,37.2,65.4,43,57.4,46.9c-9,4.4-18.7,4-33.5,0.7C8.2,44.1,7,43.6,1.4,44.3  c-2,0.2-2.6-0.2-2.8-1.1" />
<path
   id="upperLidOpen"
   class="st3"
   d="M70,26.6C68.4,14.9,60.1,5.8,54,2.2c-7.3-4.3-21.8-7.8-35.3,0C4.1,10.7,4.5,17.2-2.2,25  c-2.8,3.3-2.2,6.6-2.5,14.5" />
</svg>
